<svg id="Capa_1" enable-background="new 0 0 512 512" height="512" viewBox="0 0 512 512" width="512" xmlns="http://www.w3.org/2000/svg"><g><g><circle cx="256" cy="256" fill="#8ac9fe" r="248.5"/><path d="m367.213 33.733c28.833 40.582 45.787 90.194 45.787 143.767 0 137.243-111.257 248.5-248.5 248.5-39.982 0-77.75-9.457-111.213-26.233 45.032 63.381 119.043 104.733 202.713 104.733 137.243 0 248.5-111.257 248.5-248.5 0-97.261-55.884-181.456-137.287-222.267z" fill="#60b7ff"/><circle cx="256" cy="256" fill="#eaf6ff" r="216.385"/><path d="m332.406 305.38-44.906 44.907-91.287-91.287 91.287-91.287 45.322 45.322c5.856 5.857 15.354 5.858 21.213 0 5.858-5.857 5.858-15.355 0-21.213l-55.929-55.929c-2.813-2.813-6.628-4.394-10.606-4.394s-7.794 1.581-10.606 4.394l-86.894 86.894v-51.31c0-8.284-6.716-15-15-15s-15 6.716-15 15v87.518.01 89.518c0 8.284 6.716 15 15 15s15-6.716 15-15v-53.31l86.894 86.894c2.813 2.813 6.628 4.394 10.606 4.394s7.794-1.581 10.606-4.394l55.513-55.513c5.858-5.858 5.858-15.355 0-21.213-5.857-5.859-15.355-5.859-21.213-.001z" fill="#60b7ff"/><ellipse cx="286.377" cy="258.624" fill="#60b7ff" rx="21.202" ry="21.124"/><path d="m398.229 92.933c9.554 26.398 14.771 54.872 14.771 84.567 0 137.243-111.257 248.5-248.5 248.5-16.45 0-32.521-1.615-48.077-4.665 37.68 31.842 86.382 51.049 139.577 51.049 119.506 0 216.385-96.879 216.385-216.385 0-65.055-28.715-123.399-74.156-163.066z" fill="#d8ecfe"/></g><g><path d="m175 148.977c-12.406 0-22.5 10.093-22.5 22.5v177.046c0 12.407 10.094 22.5 22.5 22.5s22.5-10.093 22.5-22.5v-35.204l74.09 74.09c4.249 4.25 9.899 6.591 15.91 6.591s11.661-2.341 15.91-6.59l55.512-55.513c4.25-4.25 6.591-9.9 6.591-15.91s-2.341-11.661-6.59-15.909c-4.249-4.25-9.899-6.591-15.91-6.591-6.01 0-11.66 2.341-15.91 6.591l-39.603 39.602-80.681-80.68 80.681-80.68 40.019 40.019c4.249 4.25 9.899 6.59 15.909 6.591h.001c6.01 0 11.66-2.341 15.909-6.59 4.25-4.25 6.591-9.9 6.591-15.91s-2.341-11.66-6.59-15.91l-55.929-55.929c-4.249-4.25-9.899-6.591-15.91-6.591s-11.661 2.341-15.91 6.59l-74.09 74.09v-33.204c0-12.406-10.094-22.499-22.5-22.499zm107.197-7.781c1.416-1.416 3.3-2.196 5.303-2.196s3.887.78 5.303 2.197l55.93 55.93c1.416 1.417 2.196 3.3 2.196 5.303s-.78 3.886-2.197 5.303c-1.416 1.417-3.3 2.197-5.304 2.197-2.003 0-3.886-.78-5.302-2.197l-45.322-45.322c-2.929-2.929-7.677-2.93-10.607 0l-91.287 91.287c-1.406 1.406-2.196 3.314-2.196 5.303s.79 3.897 2.196 5.303l91.287 91.287c2.93 2.929 7.678 2.929 10.607 0l44.906-44.906c1.416-1.417 3.3-2.197 5.303-2.197s3.887.78 5.304 2.198c1.416 1.417 2.196 3.299 2.196 5.303 0 2.003-.78 3.886-2.197 5.303l-55.513 55.514c-1.416 1.416-3.3 2.196-5.303 2.196s-3.887-.78-5.303-2.197l-86.894-86.894c-1.436-1.435-3.354-2.197-5.306-2.197-.966 0-1.94.187-2.868.571-2.803 1.161-4.63 3.896-4.63 6.929v53.31c0 4.136-3.364 7.5-7.5 7.5s-7.5-3.364-7.5-7.5v-177.047c0-4.136 3.364-7.5 7.5-7.5s7.5 3.364 7.5 7.5v51.31c0 3.034 1.827 5.768 4.63 6.929 2.804 1.161 6.027.519 8.174-1.626z"/><path d="m437.02 74.98c-48.352-48.351-112.64-74.98-181.02-74.98-50.471 0-99.297 14.672-141.2 42.43-3.453 2.287-4.398 6.941-2.111 10.395 2.288 3.454 6.942 4.396 10.395 2.11 39.438-26.126 85.4-39.935 132.916-39.935 64.374 0 124.894 25.068 170.413 70.587s70.587 106.039 70.587 170.413-25.068 124.894-70.587 170.413-106.039 70.587-170.413 70.587-124.894-25.068-170.413-70.587-70.587-106.039-70.587-170.413c0-68.801 29.521-134.49 80.994-180.224 3.097-2.751 3.376-7.492.625-10.588-2.75-3.096-7.491-3.378-10.588-.625-54.674 48.578-86.031 118.354-86.031 191.437 0 68.38 26.629 132.667 74.98 181.02 48.352 48.351 112.64 74.98 181.02 74.98s132.668-26.629 181.02-74.98c48.351-48.353 74.98-112.64 74.98-181.02s-26.629-132.667-74.98-181.02z"/><path d="m357.709 455.5c36.185-18.483 66.71-46.493 88.277-81 22.177-35.482 33.898-76.459 33.898-118.501 0-59.802-23.288-116.024-65.574-158.311-42.286-42.285-98.508-65.573-158.31-65.573s-116.024 23.288-158.311 65.574c-42.286 42.287-65.574 98.509-65.574 158.311s23.288 116.024 65.574 158.311c42.286 42.286 98.509 65.574 158.311 65.574 23.487 0 46.627-3.622 68.776-10.765 3.942-1.271 6.107-5.498 4.836-9.44s-5.501-6.107-9.439-4.836c-20.66 6.663-42.251 10.041-64.173 10.041-115.18 0-208.885-93.706-208.885-208.885s93.705-208.885 208.885-208.885 208.885 93.706 208.885 208.885c0 39.228-10.934 77.456-31.618 110.551-20.128 32.204-48.615 58.343-82.382 75.591-3.688 1.884-5.151 6.402-3.267 10.091 1.885 3.689 6.403 5.151 10.091 3.267z"/><path d="m257.676 258.624c0 15.783 12.876 28.624 28.702 28.624s28.701-12.841 28.701-28.624-12.875-28.624-28.701-28.624-28.702 12.841-28.702 28.624zm42.403 0c0 7.512-6.146 13.624-13.701 13.624-7.556 0-13.702-6.112-13.702-13.624s6.146-13.624 13.702-13.624c7.555 0 13.701 6.112 13.701 13.624z"/></g></g></svg>